<svg width="16" height="16" viewBox="0 0 16 16" fill="none" xmlns="http://www.w3.org/2000/svg">
<mask id="mask0_10704_30859" style="mask-type:alpha" maskUnits="userSpaceOnUse" x="0" y="0" width="16" height="16">
<rect width="16" height="16" fill="#D9D9D9"/>
</mask>
<g mask="url(#mask0_10704_30859)">
<path d="M4.00016 9.99992H8.66683L10.0002 8.66659H4.00016V9.99992ZM4.00016 7.33325H8.00016V5.99992H4.00016V7.33325ZM2.66683 4.66659V11.3333H7.3335L6.00016 12.6666H1.3335V3.33325H14.6668V5.33325H13.3335V4.66659H2.66683ZM15.2668 8.19992C15.3224 8.25547 15.3502 8.31659 15.3502 8.38325C15.3502 8.44992 15.3224 8.51103 15.2668 8.56659L14.6668 9.16659L13.5002 7.99992L14.1002 7.39992C14.1557 7.34436 14.2168 7.31659 14.2835 7.31659C14.3502 7.31659 14.4113 7.34436 14.4668 7.39992L15.2668 8.19992ZM8.66683 13.9999V12.8333L13.1002 8.39992L14.2668 9.56659L9.8335 13.9999H8.66683Z" fill="#7A7A7A"/>
</g>
</svg>
