<svg width="16" height="16" viewBox="0 0 16 16" fill="none" xmlns="http://www.w3.org/2000/svg">
<mask id="mask0_10704_30770" style="mask-type:alpha" maskUnits="userSpaceOnUse" x="0" y="0" width="16" height="16">
<rect width="16" height="16" fill="#D9D9D9"/>
</mask>
<g mask="url(#mask0_10704_30770)">
<path d="M2.6665 14V3.33333C2.6665 2.96667 2.79706 2.65278 3.05817 2.39167C3.31928 2.13056 3.63317 2 3.99984 2H7.99984C8.3665 2 8.68039 2.13056 8.9415 2.39167C9.20262 2.65278 9.33317 2.96667 9.33317 3.33333V8H9.99984C10.3665 8 10.6804 8.13056 10.9415 8.39167C11.2026 8.65278 11.3332 8.96667 11.3332 9.33333V12.3333C11.3332 12.5222 11.3971 12.6806 11.5248 12.8083C11.6526 12.9361 11.8109 13 11.9998 13C12.1887 13 12.3471 12.9361 12.4748 12.8083C12.6026 12.6806 12.6665 12.5222 12.6665 12.3333V7.53333C12.5665 7.58889 12.4609 7.625 12.3498 7.64167C12.2387 7.65833 12.1221 7.66667 11.9998 7.66667C11.5332 7.66667 11.1387 7.50556 10.8165 7.18333C10.4943 6.86111 10.3332 6.46667 10.3332 6C10.3332 5.64444 10.4304 5.325 10.6248 5.04167C10.8193 4.75833 11.0776 4.55556 11.3998 4.43333L9.99984 3.03333L10.6998 2.33333L13.1665 4.73333C13.3332 4.9 13.4582 5.09444 13.5415 5.31667C13.6248 5.53889 13.6665 5.76667 13.6665 6V12.3333C13.6665 12.8 13.5054 13.1944 13.1832 13.5167C12.8609 13.8389 12.4665 14 11.9998 14C11.5332 14 11.1387 13.8389 10.8165 13.5167C10.4943 13.1944 10.3332 12.8 10.3332 12.3333V9H9.33317V14H2.6665ZM3.99984 6.66667H7.99984V3.33333H3.99984V6.66667ZM11.9998 6.66667C12.1887 6.66667 12.3471 6.60278 12.4748 6.475C12.6026 6.34722 12.6665 6.18889 12.6665 6C12.6665 5.81111 12.6026 5.65278 12.4748 5.525C12.3471 5.39722 12.1887 5.33333 11.9998 5.33333C11.8109 5.33333 11.6526 5.39722 11.5248 5.525C11.3971 5.65278 11.3332 5.81111 11.3332 6C11.3332 6.18889 11.3971 6.34722 11.5248 6.475C11.6526 6.60278 11.8109 6.66667 11.9998 6.66667ZM3.99984 12.6667H7.99984V8H3.99984V12.6667Z" fill="#7A7A7A"/>
</g>
</svg>
