<svg width="16" height="16" viewBox="0 0 16 16" fill="none" xmlns="http://www.w3.org/2000/svg">
<mask id="mask0_10733_5215" style="mask-type:alpha" maskUnits="userSpaceOnUse" x="0" y="0" width="16" height="16">
<rect width="16" height="16" fill="#D9D9D9"/>
</mask>
<g mask="url(#mask0_10733_5215)">
<path d="M4.66648 13.9997C4.29981 13.9997 3.98592 13.8691 3.72481 13.608C3.4637 13.3469 3.33315 13.033 3.33315 12.6663V5.33301C3.33315 4.96634 3.4637 4.65245 3.72481 4.39134C3.98592 4.13023 4.29981 3.99967 4.66648 3.99967H5.99981V2.66634C5.99981 2.29967 6.13037 1.98579 6.39148 1.72467C6.65259 1.46356 6.96648 1.33301 7.33314 1.33301H8.66648C9.03314 1.33301 9.34703 1.46356 9.60815 1.72467C9.86926 1.98579 9.99981 2.29967 9.99981 2.66634V3.99967H11.3331C11.6998 3.99967 12.0137 4.13023 12.2748 4.39134C12.5359 4.65245 12.6665 4.96634 12.6665 5.33301V12.6663C12.6665 13.033 12.5359 13.3469 12.2748 13.608C12.0137 13.8691 11.6998 13.9997 11.3331 13.9997C11.3331 14.1886 11.2693 14.3469 11.1415 14.4747C11.0137 14.6025 10.8554 14.6663 10.6665 14.6663C10.4776 14.6663 10.3193 14.6025 10.1915 14.4747C10.0637 14.3469 9.99981 14.1886 9.99981 13.9997H5.99981C5.99981 14.1886 5.93592 14.3469 5.80815 14.4747C5.68037 14.6025 5.52203 14.6663 5.33315 14.6663C5.14426 14.6663 4.98592 14.6025 4.85815 14.4747C4.73037 14.3469 4.66648 14.1886 4.66648 13.9997ZM4.66648 12.6663H11.3331V5.33301H4.66648V12.6663ZM5.99981 11.9997H7.33314V5.99967H5.99981V11.9997ZM8.66648 11.9997H9.99981V5.99967H8.66648V11.9997ZM7.33314 3.99967H8.66648V2.66634H7.33314V3.99967Z" fill="#979797"/>
</g>
</svg>
