<svg width="16" height="16" viewBox="0 0 16 16" fill="none" xmlns="http://www.w3.org/2000/svg">
<mask id="mask0_10704_31038" style="mask-type:alpha" maskUnits="userSpaceOnUse" x="0" y="0" width="16" height="16">
<rect width="16" height="16" fill="#D9D9D9"/>
</mask>
<g mask="url(#mask0_10704_31038)">
<path d="M8.00016 14.6666C7.07794 14.6666 6.21127 14.4916 5.40016 14.1416C4.58905 13.7916 3.8835 13.3166 3.2835 12.7166C2.6835 12.1166 2.2085 11.411 1.8585 10.5999C1.5085 9.78881 1.3335 8.92214 1.3335 7.99992C1.3335 7.0777 1.5085 6.21103 1.8585 5.39992C2.2085 4.58881 2.6835 3.88325 3.2835 3.28325C3.8835 2.68325 4.58905 2.20825 5.40016 1.85825C6.21127 1.50825 7.07794 1.33325 8.00016 1.33325C8.92238 1.33325 9.78905 1.50825 10.6002 1.85825C11.4113 2.20825 12.1168 2.68325 12.7168 3.28325C13.3168 3.88325 13.7918 4.58881 14.1418 5.39992C14.4918 6.21103 14.6668 7.0777 14.6668 7.99992C14.6668 8.92214 14.4918 9.78881 14.1418 10.5999C13.7918 11.411 13.3168 12.1166 12.7168 12.7166C12.1168 13.3166 11.4113 13.7916 10.6002 14.1416C9.78905 14.4916 8.92238 14.6666 8.00016 14.6666ZM7.3335 13.2666V11.2666C6.66683 11.1333 6.10016 10.8333 5.6335 10.3666C5.16683 9.89992 4.86683 9.33325 4.7335 8.66658H2.7335C2.86683 9.8777 3.36405 10.9055 4.22516 11.7499C5.08627 12.5944 6.12238 13.0999 7.3335 13.2666ZM8.66683 13.2666C9.87794 13.1333 10.9141 12.636 11.7752 11.7749C12.6363 10.9138 13.1335 9.8777 13.2668 8.66658H11.2668C11.1335 9.33325 10.8335 9.89992 10.3668 10.3666C9.90016 10.8333 9.3335 11.1333 8.66683 11.2666V13.2666ZM2.7335 7.33325H4.66683L6.66683 5.33325H9.3335L11.3335 7.33325H13.2668C13.1002 5.98881 12.5168 4.87492 11.5168 3.99159C10.5168 3.10825 9.34461 2.66659 8.00016 2.66659C6.65572 2.66659 5.4835 3.10825 4.4835 3.99159C3.4835 4.87492 2.90016 5.98881 2.7335 7.33325Z" fill="#7A7A7A"/>
</g>
</svg>
