<svg width="16" height="16" viewBox="0 0 16 16" fill="none" xmlns="http://www.w3.org/2000/svg">
<mask id="mask0_10733_5220" style="mask-type:alpha" maskUnits="userSpaceOnUse" x="0" y="0" width="16" height="16">
<rect width="16" height="16" fill="#D9D9D9"/>
</mask>
<g mask="url(#mask0_10733_5220)">
<path d="M7.99983 14.6663C7.08872 14.6663 6.2276 14.4913 5.41649 14.1413C4.60538 13.7913 3.89705 13.3136 3.29149 12.708C2.68594 12.1025 2.20816 11.3941 1.85816 10.583C1.50816 9.7719 1.33316 8.91079 1.33316 7.99967C1.33316 7.07745 1.50816 6.21356 1.85816 5.40801C2.20816 4.60245 2.68594 3.8969 3.29149 3.29134C3.89705 2.68579 4.60538 2.20801 5.41649 1.85801C6.2276 1.50801 7.08872 1.33301 7.99983 1.33301C8.92205 1.33301 9.78594 1.50801 10.5915 1.85801C11.397 2.20801 12.1026 2.68579 12.7082 3.29134C13.3137 3.8969 13.7915 4.60245 14.1415 5.40801C14.4915 6.21356 14.6665 7.07745 14.6665 7.99967C14.6665 8.91079 14.4915 9.7719 14.1415 10.583C13.7915 11.3941 13.3137 12.1025 12.7082 12.708C12.1026 13.3136 11.397 13.7913 10.5915 14.1413C9.78594 14.4913 8.92205 14.6663 7.99983 14.6663ZM7.99983 10.6663C8.66649 10.6663 9.31649 10.7636 9.94983 10.958C10.5832 11.1525 11.1776 11.433 11.7332 11.7997C12.2443 11.2886 12.6387 10.708 12.9165 10.058C13.1943 9.40801 13.3332 8.7219 13.3332 7.99967C13.3332 6.51079 12.8165 5.24967 11.7832 4.21634C10.7498 3.18301 9.48872 2.66634 7.99983 2.66634C6.51094 2.66634 5.24983 3.18301 4.21649 4.21634C3.18316 5.24967 2.66649 6.51079 2.66649 7.99967C2.66649 8.7219 2.8026 9.41079 3.07483 10.0663C3.34705 10.7219 3.74427 11.2997 4.26649 11.7997C4.82205 11.433 5.41649 11.1525 6.04983 10.958C6.68316 10.7636 7.33316 10.6663 7.99983 10.6663ZM7.99983 11.9997C7.54427 11.9997 7.09983 12.0552 6.66649 12.1663C6.23316 12.2775 5.82205 12.4441 5.43316 12.6663C5.82205 12.8886 6.23316 13.0552 6.66649 13.1663C7.09983 13.2775 7.54427 13.333 7.99983 13.333C8.45538 13.333 8.89983 13.2775 9.33316 13.1663C9.76649 13.0552 10.1776 12.8886 10.5665 12.6663C10.1776 12.4441 9.76649 12.2775 9.33316 12.1663C8.89983 12.0552 8.45538 11.9997 7.99983 11.9997ZM4.66649 7.33301C4.85538 7.33301 5.01372 7.26912 5.14149 7.14134C5.26927 7.01356 5.33316 6.85523 5.33316 6.66634C5.33316 6.47745 5.26927 6.31912 5.14149 6.19134C5.01372 6.06356 4.85538 5.99967 4.66649 5.99967C4.4776 5.99967 4.31927 6.06356 4.19149 6.19134C4.06372 6.31912 3.99983 6.47745 3.99983 6.66634C3.99983 6.85523 4.06372 7.01356 4.19149 7.14134C4.31927 7.26912 4.4776 7.33301 4.66649 7.33301ZM6.66649 5.33301C6.85538 5.33301 7.01372 5.26912 7.14149 5.14134C7.26927 5.01356 7.33316 4.85523 7.33316 4.66634C7.33316 4.47745 7.26927 4.31912 7.14149 4.19134C7.01372 4.06356 6.85538 3.99967 6.66649 3.99967C6.4776 3.99967 6.31927 4.06356 6.19149 4.19134C6.06372 4.31912 5.99983 4.47745 5.99983 4.66634C5.99983 4.85523 6.06372 5.01356 6.19149 5.14134C6.31927 5.26912 6.4776 5.33301 6.66649 5.33301ZM11.3332 7.33301C11.522 7.33301 11.6804 7.26912 11.8082 7.14134C11.9359 7.01356 11.9998 6.85523 11.9998 6.66634C11.9998 6.47745 11.9359 6.31912 11.8082 6.19134C11.6804 6.06356 11.522 5.99967 11.3332 5.99967C11.1443 5.99967 10.9859 6.06356 10.8582 6.19134C10.7304 6.31912 10.6665 6.47745 10.6665 6.66634C10.6665 6.85523 10.7304 7.01356 10.8582 7.14134C10.9859 7.26912 11.1443 7.33301 11.3332 7.33301ZM7.99983 9.33301C8.36649 9.33301 8.68038 9.20245 8.94149 8.94134C9.2026 8.68023 9.33316 8.36634 9.33316 7.99967C9.33316 7.85523 9.31094 7.71356 9.26649 7.57467C9.22205 7.43579 9.15538 7.31079 9.06649 7.19967L9.96649 4.93301C10.0443 4.75523 10.047 4.58023 9.97483 4.40801C9.90261 4.23579 9.77761 4.11079 9.59983 4.03301C9.43316 3.95523 9.26372 3.95245 9.09149 4.02467C8.91927 4.0969 8.79983 4.2219 8.73316 4.39967L7.83316 6.66634C7.49983 6.7219 7.22205 6.87467 6.99983 7.12467C6.7776 7.37467 6.66649 7.66634 6.66649 7.99967C6.66649 8.36634 6.79705 8.68023 7.05816 8.94134C7.31927 9.20245 7.63316 9.33301 7.99983 9.33301Z" fill="#979797"/>
</g>
</svg>
