<svg width="16" height="16" viewBox="0 0 16 16" fill="none" xmlns="http://www.w3.org/2000/svg">
<mask id="mask0_10704_30865" style="mask-type:alpha" maskUnits="userSpaceOnUse" x="0" y="0" width="16" height="16">
<rect width="16" height="16" fill="#D9D9D9"/>
</mask>
<g mask="url(#mask0_10704_30865)">
<path d="M8.00016 10.0001C8.55572 10.0001 9.02794 9.80564 9.41683 9.41675C9.80572 9.02786 10.0002 8.55564 10.0002 8.00008C10.0002 7.44453 9.80572 6.9723 9.41683 6.58341C9.02794 6.19453 8.55572 6.00008 8.00016 6.00008C7.44461 6.00008 6.97238 6.19453 6.5835 6.58341C6.19461 6.9723 6.00016 7.44453 6.00016 8.00008C6.00016 8.55564 6.19461 9.02786 6.5835 9.41675C6.97238 9.80564 7.44461 10.0001 8.00016 10.0001ZM11.3002 11.3001C11.7446 10.8556 12.0835 10.3501 12.3168 9.78341C12.5502 9.21675 12.6668 8.6223 12.6668 8.00008C12.6668 7.37786 12.5502 6.78341 12.3168 6.21675C12.0835 5.65008 11.7446 5.14453 11.3002 4.70008L10.3668 5.63341C10.6891 5.95564 10.9307 6.31953 11.0918 6.72508C11.2529 7.13064 11.3335 7.55564 11.3335 8.00008C11.3335 8.44453 11.2529 8.86953 11.0918 9.27508C10.9307 9.68064 10.6891 10.0445 10.3668 10.3667L11.3002 11.3001ZM4.70016 11.3001L5.6335 10.3667C5.31127 10.0445 5.06961 9.68064 4.9085 9.27508C4.74738 8.86953 4.66683 8.44453 4.66683 8.00008C4.66683 7.55564 4.74738 7.13064 4.9085 6.72508C5.06961 6.31953 5.31127 5.95564 5.6335 5.63341L4.70016 4.70008C4.25572 5.14453 3.91683 5.65008 3.6835 6.21675C3.45016 6.78341 3.3335 7.37786 3.3335 8.00008C3.3335 8.6223 3.45016 9.21675 3.6835 9.78341C3.91683 10.3501 4.25572 10.8556 4.70016 11.3001ZM2.66683 13.3334C2.30016 13.3334 1.98627 13.2029 1.72516 12.9417C1.46405 12.6806 1.3335 12.3667 1.3335 12.0001V4.00008C1.3335 3.63341 1.46405 3.31953 1.72516 3.05841C1.98627 2.7973 2.30016 2.66675 2.66683 2.66675H13.3335C13.7002 2.66675 14.0141 2.7973 14.2752 3.05841C14.5363 3.31953 14.6668 3.63341 14.6668 4.00008V12.0001C14.6668 12.3667 14.5363 12.6806 14.2752 12.9417C14.0141 13.2029 13.7002 13.3334 13.3335 13.3334H2.66683ZM2.66683 12.0001H13.3335V4.00008H2.66683V12.0001Z" fill="#7A7A7A"/>
</g>
</svg>
