<svg width="16" height="16" viewBox="0 0 16 16" fill="none" xmlns="http://www.w3.org/2000/svg">
<mask id="mask0_10733_5210" style="mask-type:alpha" maskUnits="userSpaceOnUse" x="0" y="0" width="16" height="16">
<rect width="16" height="16" fill="#D9D9D9"/>
</mask>
<g mask="url(#mask0_10733_5210)">
<path d="M5.66667 3.99967C5.3 3.99967 4.98611 3.86912 4.725 3.60801C4.46389 3.3469 4.33333 3.03301 4.33333 2.66634C4.33333 2.29967 4.46389 1.98579 4.725 1.72467C4.98611 1.46356 5.3 1.33301 5.66667 1.33301C6.03333 1.33301 6.34722 1.46356 6.60833 1.72467C6.86944 1.98579 7 2.29967 7 2.66634C7 3.03301 6.86944 3.3469 6.60833 3.60801C6.34722 3.86912 6.03333 3.99967 5.66667 3.99967ZM9.33333 13.333H5.03333C4.66667 13.333 4.33056 13.2025 4.025 12.9413C3.71944 12.6802 3.52778 12.3663 3.45 11.9997L2 4.66634H3.36667L4.83333 11.9997H9.33333V13.333ZM13 14.6663L11.0667 11.333H6.43333C6.11111 11.333 5.83056 11.2358 5.59167 11.0413C5.35278 10.8469 5.2 10.5886 5.13333 10.2663L4.4 6.69967C4.27778 6.16634 4.40278 5.69412 4.775 5.28301C5.14722 4.8719 5.6 4.66634 6.13333 4.66634C6.52222 4.66634 6.875 4.78301 7.19167 5.01634C7.50833 5.24967 7.71111 5.56634 7.8 5.96634L8.53333 9.33301H10.7C10.9333 9.33301 11.15 9.39412 11.35 9.51634C11.55 9.63856 11.7111 9.79967 11.8333 9.99967L14.1667 13.9997L13 14.6663Z" fill="#979797"/>
</g>
</svg>
