<svg width="16" height="16" viewBox="0 0 16 16" fill="none" xmlns="http://www.w3.org/2000/svg">
<mask id="mask0_10733_5226" style="mask-type:alpha" maskUnits="userSpaceOnUse" x="0" y="0" width="16" height="16">
<rect width="16" height="16" fill="#D9D9D9"/>
</mask>
<g mask="url(#mask0_10733_5226)">
<path d="M2.66685 14C2.1113 14 1.63908 13.8056 1.25019 13.4167C0.861299 13.0278 0.666855 12.5556 0.666855 12C0.666855 11.5667 0.791855 11.1778 1.04185 10.8333C1.29185 10.4889 1.6113 10.25 2.00019 10.1167V5.88333C1.6113 5.75 1.29185 5.51111 1.04185 5.16667C0.791855 4.82222 0.666855 4.43333 0.666855 4C0.666855 3.44444 0.861299 2.97222 1.25019 2.58333C1.63908 2.19444 2.1113 2 2.66685 2C3.22241 2 3.69463 2.19444 4.08352 2.58333C4.47241 2.97222 4.66685 3.44444 4.66685 4C4.66685 4.43333 4.54185 4.82222 4.29185 5.16667C4.04185 5.51111 3.72241 5.75 3.33352 5.88333V7.33333H7.33352V5.88333C6.94463 5.75 6.62519 5.51111 6.37519 5.16667C6.12519 4.82222 6.00019 4.43333 6.00019 4C6.00019 3.44444 6.19463 2.97222 6.58352 2.58333C6.97241 2.19444 7.44463 2 8.00019 2C8.55574 2 9.02797 2.19444 9.41685 2.58333C9.80574 2.97222 10.0002 3.44444 10.0002 4C10.0002 4.43333 9.87519 4.82222 9.62519 5.16667C9.37519 5.51111 9.05574 5.75 8.66685 5.88333V7.33333H12.0002C12.1891 7.33333 12.3474 7.26944 12.4752 7.14167C12.603 7.01389 12.6669 6.85556 12.6669 6.66667V5.88333C12.278 5.75 11.9585 5.51111 11.7085 5.16667C11.4585 4.82222 11.3335 4.43333 11.3335 4C11.3335 3.44444 11.528 2.97222 11.9169 2.58333C12.3057 2.19444 12.778 2 13.3335 2C13.8891 2 14.3613 2.19444 14.7502 2.58333C15.1391 2.97222 15.3335 3.44444 15.3335 4C15.3335 4.43333 15.2085 4.82222 14.9585 5.16667C14.7085 5.51111 14.3891 5.75 14.0002 5.88333V6.66667C14.0002 7.22222 13.8057 7.69444 13.4169 8.08333C13.028 8.47222 12.5557 8.66667 12.0002 8.66667H8.66685V10.1167C9.05574 10.25 9.37519 10.4889 9.62519 10.8333C9.87519 11.1778 10.0002 11.5667 10.0002 12C10.0002 12.5556 9.80574 13.0278 9.41685 13.4167C9.02797 13.8056 8.55574 14 8.00019 14C7.44463 14 6.97241 13.8056 6.58352 13.4167C6.19463 13.0278 6.00019 12.5556 6.00019 12C6.00019 11.5667 6.12519 11.1778 6.37519 10.8333C6.62519 10.4889 6.94463 10.25 7.33352 10.1167V8.66667H3.33352V10.1167C3.72241 10.25 4.04185 10.4889 4.29185 10.8333C4.54185 11.1778 4.66685 11.5667 4.66685 12C4.66685 12.5556 4.47241 13.0278 4.08352 13.4167C3.69463 13.8056 3.22241 14 2.66685 14ZM2.66685 12.6667C2.85574 12.6667 3.01408 12.6028 3.14186 12.475C3.26963 12.3472 3.33352 12.1889 3.33352 12C3.33352 11.8111 3.26963 11.6528 3.14186 11.525C3.01408 11.3972 2.85574 11.3333 2.66685 11.3333C2.47797 11.3333 2.31963 11.3972 2.19185 11.525C2.06408 11.6528 2.00019 11.8111 2.00019 12C2.00019 12.1889 2.06408 12.3472 2.19185 12.475C2.31963 12.6028 2.47797 12.6667 2.66685 12.6667ZM2.66685 4.66667C2.85574 4.66667 3.01408 4.60278 3.14186 4.475C3.26963 4.34722 3.33352 4.18889 3.33352 4C3.33352 3.81111 3.26963 3.65278 3.14186 3.525C3.01408 3.39722 2.85574 3.33333 2.66685 3.33333C2.47797 3.33333 2.31963 3.39722 2.19185 3.525C2.06408 3.65278 2.00019 3.81111 2.00019 4C2.00019 4.18889 2.06408 4.34722 2.19185 4.475C2.31963 4.60278 2.47797 4.66667 2.66685 4.66667ZM8.00019 12.6667C8.18908 12.6667 8.34741 12.6028 8.47519 12.475C8.60297 12.3472 8.66685 12.1889 8.66685 12C8.66685 11.8111 8.60297 11.6528 8.47519 11.525C8.34741 11.3972 8.18908 11.3333 8.00019 11.3333C7.8113 11.3333 7.65297 11.3972 7.52519 11.525C7.39741 11.6528 7.33352 11.8111 7.33352 12C7.33352 12.1889 7.39741 12.3472 7.52519 12.475C7.65297 12.6028 7.8113 12.6667 8.00019 12.6667ZM8.00019 4.66667C8.18908 4.66667 8.34741 4.60278 8.47519 4.475C8.60297 4.34722 8.66685 4.18889 8.66685 4C8.66685 3.81111 8.60297 3.65278 8.47519 3.525C8.34741 3.39722 8.18908 3.33333 8.00019 3.33333C7.8113 3.33333 7.65297 3.39722 7.52519 3.525C7.39741 3.65278 7.33352 3.81111 7.33352 4C7.33352 4.18889 7.39741 4.34722 7.52519 4.475C7.65297 4.60278 7.8113 4.66667 8.00019 4.66667ZM13.3335 4.66667C13.5224 4.66667 13.6807 4.60278 13.8085 4.475C13.9363 4.34722 14.0002 4.18889 14.0002 4C14.0002 3.81111 13.9363 3.65278 13.8085 3.525C13.6807 3.39722 13.5224 3.33333 13.3335 3.33333C13.1446 3.33333 12.9863 3.39722 12.8585 3.525C12.7307 3.65278 12.6669 3.81111 12.6669 4C12.6669 4.18889 12.7307 4.34722 12.8585 4.475C12.9863 4.60278 13.1446 4.66667 13.3335 4.66667Z" fill="#979797"/>
</g>
</svg>
