<svg width="175" height="37" viewBox="0 0 175 37" fill="none" xmlns="http://www.w3.org/2000/svg">
<path d="M121.028 35.6994C120.112 36.1324 118.286 36.6016 116.09 36.6016C110.605 36.6016 107.07 33.0871 107.07 27.6638C107.07 22.4308 110.649 18.3643 116.803 18.3643C118.438 18.3643 120.065 18.7205 121.076 19.1616L120.291 22.4846C119.579 22.1378 118.52 21.8011 116.945 21.8011C113.57 21.8011 111.572 24.2645 111.587 27.4679C111.587 31.0524 113.944 33.1074 116.959 33.1074C118.475 33.1074 119.569 32.7793 120.433 32.4177L121.028 35.6994Z" fill="#212F62"/>
<path d="M133.659 27.6635C130.538 27.6222 127.552 28.2796 127.552 30.9406C127.552 32.6514 128.676 33.4577 130.074 33.4577C131.839 33.4577 133.112 32.3193 133.536 31.0395C133.631 30.7329 133.659 30.3853 133.659 30.0789V27.6635ZM134.245 36.2223L133.942 34.2754H133.836C132.775 35.6546 130.945 36.6172 128.68 36.6172C125.13 36.6172 123.164 34.0844 123.164 31.4192C123.164 27.0096 127.098 24.777 133.542 24.8026V24.5137C133.542 23.3651 133.087 21.4552 129.989 21.4668C128.276 21.4668 126.478 22.0188 125.286 22.7705L124.409 19.903C125.731 19.1006 127.996 18.3519 130.751 18.3519C136.362 18.3519 137.964 21.886 137.964 25.7201V32.0127C137.964 33.6014 138.043 35.1431 138.236 36.2223H134.245Z" fill="#212F62"/>
<path d="M147.058 28.9903C147.058 29.3571 147.097 29.7151 147.17 30.0322C147.636 31.8215 149.167 33.1258 151.074 33.1258C153.847 33.1258 155.523 30.9217 155.523 27.3908C155.523 24.3166 154.038 21.7873 151.12 21.7873C149.328 21.7873 147.677 23.0685 147.201 25.016C147.12 25.3599 147.058 25.7436 147.058 26.1621V28.9903ZM142.492 36.2223C142.572 35.0466 142.636 33.1124 142.636 31.321V10.7356H147.058V21.1528H147.13C148.203 19.4429 150.113 18.3519 152.716 18.3519C156.984 18.3519 160.04 21.8832 160.009 27.2092C160.009 33.492 156.024 36.6172 152.063 36.6172C149.804 36.6172 147.814 35.7559 146.55 33.5922H146.47L146.272 36.2223H142.492Z" fill="#212F62"/>
<path d="M163.452 32.1604C164.429 32.7642 166.333 33.4357 167.916 33.4357C169.863 33.4357 170.732 32.6202 170.732 31.474C170.732 30.2903 170.01 29.6899 167.859 28.9261C164.435 27.7547 163.008 25.8933 163.024 23.8226C163.024 20.7494 165.58 18.3543 169.663 18.3543C171.59 18.3543 173.277 18.8351 174.303 19.3982L173.426 22.5C172.69 22.0833 171.274 21.4947 169.726 21.4947C168.152 21.4947 167.275 22.2703 167.275 23.3454C167.275 24.4547 168.119 24.9877 170.33 25.7936C173.514 26.9177 174.983 28.5399 174.998 31.1154C174.998 34.3029 172.513 36.6016 167.893 36.6016C165.776 36.6016 163.851 36.0955 162.562 35.3775L163.452 32.1604Z" fill="#212F62"/>
<path d="M0 5.52726H11.2882L15.4235 27.5199L20.0058 5.52726H31.1821L35.3174 27.5199L39.5644 5.52726H49.9586L40.6822 36.5625H29.3939L24.9792 15.463L20.4528 36.5625H8.82945L0 5.52726Z" fill="#212F62"/>
<path d="M53.4219 5.52807H83.1503V12.4494H73.4271V36.5625H63.0334L62.9195 12.6579L53.4219 12.4494V5.52807Z" fill="#212F62"/>
<path d="M85.9453 13.885H96.4508V36.5469H85.9453V13.885Z" fill="#212F62"/>
<path d="M96.463 5.66102C96.463 8.44565 94.203 10.7031 91.4152 10.7031C88.6272 10.7031 86.3672 8.44565 86.3672 5.66102C86.3672 2.87639 88.6272 0.618913 91.4152 0.618913C94.203 0.618913 96.463 2.87639 96.463 5.66102Z" fill="#E8262B"/>
</svg>
