<svg width="175" height="37" viewBox="0 0 175 37" fill="none" xmlns="http://www.w3.org/2000/svg">
<path d="M121.028 35.6916C120.112 36.1246 118.286 36.5938 116.09 36.5938C110.605 36.5938 107.07 33.0793 107.07 27.6559C107.07 22.423 110.649 18.3565 116.803 18.3565C118.438 18.3565 120.065 18.7127 121.076 19.1538L120.291 22.4768C119.579 22.13 118.52 21.7933 116.945 21.7933C113.57 21.7933 111.572 24.2567 111.587 27.4601C111.587 31.0446 113.944 33.0996 116.959 33.0996C118.475 33.0996 119.569 32.7715 120.433 32.4099L121.028 35.6916Z" fill="white"/>
<path d="M133.659 27.6557C130.538 27.6144 127.552 28.2718 127.552 30.9328C127.552 32.6436 128.676 33.4499 130.074 33.4499C131.839 33.4499 133.112 32.3115 133.536 31.0317C133.631 30.7251 133.659 30.3775 133.659 30.0711V27.6557ZM134.245 36.2145L133.942 34.2676H133.836C132.775 35.6468 130.945 36.6094 128.68 36.6094C125.13 36.6094 123.164 34.0766 123.164 31.4114C123.164 27.0017 127.098 24.7691 133.542 24.7948V24.5059C133.542 23.3573 133.087 21.4473 129.989 21.459C128.276 21.459 126.478 22.011 125.286 22.7627L124.409 19.8952C125.731 19.0927 127.996 18.3441 130.751 18.3441C136.362 18.3441 137.964 21.8782 137.964 25.7123V32.0049C137.964 33.5936 138.043 35.1353 138.236 36.2145H134.245Z" fill="white"/>
<path d="M147.058 28.9825C147.058 29.3493 147.097 29.7073 147.17 30.0244C147.636 31.8137 149.167 33.118 151.074 33.118C153.847 33.118 155.523 30.9139 155.523 27.383C155.523 24.3088 154.038 21.7794 151.12 21.7794C149.328 21.7794 147.677 23.0607 147.201 25.0081C147.12 25.3521 147.058 25.7357 147.058 26.1543V28.9825ZM142.492 36.2145C142.572 35.0388 142.636 33.1046 142.636 31.3132V10.7278H147.058V21.1449H147.13C148.203 19.4351 150.113 18.3441 152.716 18.3441C156.984 18.3441 160.04 21.8754 160.009 27.2014C160.009 33.4842 156.024 36.6094 152.063 36.6094C149.804 36.6094 147.814 35.7481 146.55 33.5844H146.47L146.272 36.2145H142.492Z" fill="white"/>
<path d="M163.452 32.1526C164.429 32.7564 166.333 33.4279 167.916 33.4279C169.863 33.4279 170.732 32.6124 170.732 31.4662C170.732 30.2824 170.01 29.6821 167.859 28.9183C164.435 27.7468 163.008 25.8855 163.024 23.8148C163.024 20.7416 165.58 18.3465 169.663 18.3465C171.59 18.3465 173.277 18.8273 174.303 19.3904L173.426 22.4922C172.69 22.0754 171.274 21.4869 169.726 21.4869C168.152 21.4869 167.275 22.2625 167.275 23.3376C167.275 24.4469 168.119 24.9799 170.33 25.7857C173.514 26.9099 174.983 28.532 174.998 31.1076C174.998 34.2951 172.513 36.5938 167.893 36.5938C165.776 36.5938 163.851 36.0877 162.562 35.3697L163.452 32.1526Z" fill="white"/>
<path d="M0 5.51945H11.2882L15.4235 27.5121L20.0058 5.51945H31.1821L35.3174 27.5121L39.5644 5.51945H49.9586L40.6822 36.5547H29.3939L24.9792 15.4552L20.4528 36.5547H8.82945L0 5.51945Z" fill="white"/>
<path d="M53.4219 5.52026H83.1503V12.4416H73.4271V36.5547H63.0334L62.9195 12.6501L53.4219 12.4416V5.52026Z" fill="white"/>
<path d="M85.9453 13.8772H96.4508V36.5391H85.9453V13.8772Z" fill="white"/>
<path d="M96.463 5.65321C96.463 8.43783 94.203 10.6953 91.4152 10.6953C88.6272 10.6953 86.3672 8.43783 86.3672 5.65321C86.3672 2.86858 88.6272 0.6111 91.4152 0.6111C94.203 0.6111 96.463 2.86858 96.463 5.65321Z" fill="#E8262B"/>
</svg>
